# AST/ASF file generated using VICON BodyLanguage
# -----------------------------------------------
:version 1.10
:name VICON
:units
  mass 1.0
  length 0.45
  angle deg
:documentation
   .ast/.asf automatically generated from VICON data using
   VICON BodyBuilder and BodyLanguage model FoxedUp or BRILLIANT.MOD
:root
   order TX TY TZ RX RY RZ
   axis XYZ
   position 0 0 0  
   orientation 0 0 0 
:bonedata
  begin
     id 1 
     name lhipjoint
     direction 0.578396 -0.714046 0.394458 
     length 2.21935 
     axis 0 0 0  XYZ
  end
  begin
     id 2 
     name lfemur
     direction 0.34202 -0.939693 0  
     length 6.39105  
     axis 0 0 20  XYZ
    dof rx ry rz
    limits (-160.0 20.0)
           (-70.0 70.0)
           (-60.0 70.0)
  end
  begin
     id 3 
     name ltibia
     direction 0.34202 -0.939693 0   
     length 6.99037   
     axis 0 0 20   XYZ
    dof rx
    limits (-10.0 170.0)
  end
  begin
     id 4 
     name lfoot
     direction 0.0582372 -0.160005 0.985397   
     length 2.06111   
     axis -90 7.62852e-016 20   XYZ
    dof rx rz
    limits (-45.0 90.0)
           (-70.0 20.0)
  end
  begin
     id 5 
     name ltoes
     direction 1.53556e-011 -4.21875e-011 1   
     length 1.04074   
     axis -90 7.62852e-016 20   XYZ
    dof rx
    limits (-90.0 20.0)
  end
  begin
     id 6 
     name rhipjoint
     direction -0.558179 -0.726269 0.40121   
     length 2.182  
     axis 0 0 0  XYZ 
  end
  begin
     id 7 
     name rfemur
     direction -0.34202 -0.939693 0   
     length 6.51172   
     axis 0 0 -20   XYZ
    dof rx ry rz
    limits (-160.0 20.0)
           (-70.0 70.0)
           (-70.0 60.0)
  end
  begin
     id 8 
     name rtibia
     direction -0.34202 -0.939693 0   
     length 7.02607   
     axis 0 0 -20   XYZ
    dof rx
    limits (-10.0 170.0)
 end
 begin
     id 9 
     name rfoot
     direction -0.0788856 -0.216737 0.973038   
     length 1.96734  
     axis -90 -7.62852e-016 -20   XYZ
    dof rx rz
    limits (-45.0 90.0)
           (-20.0 70.0)
  end
  begin
     id 10 
     name rtoes
     direction -1.53567e-011 -4.21783e-011 1   
     length 0.990825   
     axis -90 -7.62852e-016 -20   XYZ
    dof rx
    limits (-90.0 20.0)
  end
  begin
     id 11 
     name lowerback
     direction 0.00668177 0.999323 -0.0361741   
     length 1.7655   
     axis 0 0 0   XYZ
    dof rx ry rz
    limits (-20.0 45.0)
           (-30.0 30.0)
           (-30.0 30.0)
  end
  begin
     id 12 
     name upperback
     direction -0.00222086 0.99851 0.0545167   
     length 1.74912   
     axis 0 0 0   XYZ
    dof rx ry rz
    limits (-20.0 45.0)
           (-30.0 30.0)
           (-30.0 30.0)
  end
  begin
     id 13 
     name thorax
     direction -0.00733971 0.997496 0.0703443   
     length 1.75715   
     axis 0 0 0   XYZ
    dof rx ry rz
    limits (-20.0 45.0)
           (-30.0 30.0)
           (-30.0 30.0)
  end
  begin
     id 14 
     name lowerneck
     direction 0.0279797 0.994795 0.0979765   
     length 1.46939   
     axis 0 0 0   XYZ
    dof rx ry rz
    limits (-20.0 45.0)
           (-30.0 30.0)
           (-30.0 30.0)
  end
  begin
     id 15 
     name upperneck
     direction 0.00339187 0.976776 -0.214238   
     length 1.48018   
     axis 0 0 0   XYZ
    dof rx ry rz
    limits (-20.0 45.0)
           (-30.0 30.0)
           (-30.0 30.0)
  end
  begin
     id 16
     name head
     direction -0.00263506 0.996603 -0.0823096  
     length 1.4976  
     axis 0 0 0   XYZ
    dof rx ry rz
    limits (-20.0 45.0)
           (-30.0 30.0)
           (-30.0 30.0)
  end
  begin
     id 17 
     name lclavicle
     direction 0.894044 0.44508 -0.0508781  
     length 3.03024  
     axis 0 0 0   XYZ
    dof ry rz
    limits (-20.0 10.0)
           (0.0 20.0)
  end
  begin
     id 18 
     name lhumerus
     direction 1 -4.48961e-011 -2.39475e-018   
     length 4.4661   
     axis 180 -30 -90   XYZ
    dof rx ry rz
    limits (-60.0 90.0)
           (-90.0 90.0)
           (-90.0 90.0)
  end
  begin
     id 19
     name lradius
     direction 1 -4.48961e-011 9.29328e-028   
     length 3.41414   
     axis 180 -30 -90   XYZ
    dof rx
    limits (-10.0 170.0)
  end
  begin
     id 20
     name lwrist
     direction 1 -4.48985e-011 1.53461e-026   
     length 1.70707   
     axis -1.09697e-014 90 90   XYZ
    dof ry
    limits (-180.0 0.0)
 end
  begin
     id 21 
     name lhand
     direction 1 -4.48966e-011 3.06923e-026   
     length 0.328298   
     axis -1.95843e-014 90 90   XYZ
    dof rx rz
    limits (-90.0 90.0)
           (-45.0 45.0)
  end
  begin
     id 22 
     name lfingers
     direction 1 -4.48893e-011 6.13845e-026   
     length 0.264682   
     axis -3.91686e-014 90 90   XYZ
    dof rx
    limits (0.0 90.0)
  end
  begin
     id 23
     name lthumb
     direction 0.707107 -6.34876e-011 0.707107   
     length 0.380032   
     axis -90 45 2.85299e-015   XYZ
    dof rx rz
    limits (-45.0 45.0)
           (-45.0 45.0)
  end
  begin
     id 24 
     name rclavicle
     direction -0.936955 0.347862 -0.0332887   
     length 3.26927  
     axis 0 0 0   XYZ 
    dof ry rz
    limits (-10.0 20.0)
           (-20.0 0.0)
  end
  begin
     id 25 
     name rhumerus
     direction -1 -4.4896e-011 1.78637e-018  
     length 4.40431   
     axis 180 30 90   XYZ
    dof rx ry rz
    limits (-90.0 60.0)
           (-90.0 90.0)
           (-90.0 90.0)
  end
  begin
     id 26 
     name rradius
     direction -1 -4.48955e-011 9.34036e-027   
     length 3.04688   
     axis 180 30 90   XYZ
    dof rx
    limits (-10.0 170.0)
  end
  begin
     id 27 
     name rwrist
     direction -1 -4.49011e-011 1.53461e-026   
     length 1.52344   
     axis -1.09697e-014 -90 -90   XYZ
    dof ry
    limits (-180.0 0.0)
  end
  begin
     id 28
     name rhand
     direction -1 -4.48834e-011 3.06923e-026   
     length 0.500489   
     axis -1.95843e-014 -90 -90   XYZ
    dof rx rz
    limits (-90.0 90.0)
           (-45.0 45.0)
  end
  begin
     id 29
     name rfingers
     direction -1 -4.48967e-011 6.13845e-026   
     length 0.403507   
     axis -3.91686e-014 -90 -90   XYZ
    dof rx
    limits (0.0 90.0)
  end
  begin
     id 30
     name rthumb
     direction -0.707107 -6.34826e-011 0.707107   
     length 0.579358   
     axis -90 -45 -2.85299e-015   XYZ
    dof rx rz
    limits (-45.0 45.0)
           (-45.0 45.0)
  end
:hierarchy
  begin
    root lhipjoint rhipjoint lowerback
    lhipjoint lfemur
    lfemur ltibia
    ltibia lfoot
    lfoot ltoes
    rhipjoint rfemur
    rfemur rtibia
    rtibia rfoot
    rfoot rtoes
    lowerback upperback
    upperback thorax
    thorax lowerneck lclavicle rclavicle
    lowerneck upperneck
    upperneck head
    lclavicle lhumerus
    lhumerus lradius
    lradius lwrist
    lwrist lhand lthumb
    lhand lfingers
    rclavicle rhumerus
    rhumerus rradius
    rradius rwrist
    rwrist rhand rthumb
    rhand rfingers
  end

#!OML:ASF H:\IndianDance\Patient Classification 1\Patient 1\Session 1\dancer.ASF
:FULLY-SPECIFIED
:DEGREES
165
root 2.64067 13.0684 10.8192 -175.432 0.363811 -176.781
lowerback 5.81942 1.93735 0.723077
upperback -6.32728 2.93037 -0.311302
thorax -9.93781 1.46744 -1.1746
lowerneck -16.552 -2.54234 -1.39805
upperneck 20.4394 -4.79711 4.74324
head 9.32938 -2.03033 1.21198
rclavicle 3.27001e-014 1.31198e-014
rhumerus -13.8359 31.9054 -11.0886
rradius 36.86
rwrist -12.5116
rhand -5.03059 10.0577
rfingers 7.12502
rthumb 20.764 -18.8514
lclavicle 3.27001e-014 1.31198e-014
lhumerus -3.01227 -36.3329 -1.67704
lradius 38.5651
lwrist 19.7457
lhand -5.90555 -0.381355
lfingers 7.12502
lthumb 19.9232 28.6174
rfemur -41.6958 -36.539 21.9744
rtibia 79.1518
rfoot -34.6453 -3.76298
rtoes 9.03011
lfemur -38.9031 36.0449 -14.1071
ltibia 78.8423
lfoot -33.7526 5.04892
ltoes 2.62476
166
root 2.63504 13.0761 10.8244 -175.422 0.271377 -176.773
lowerback 5.81095 1.9122 0.733239
upperback -6.32737 2.89868 -0.301829
thorax -9.93349 1.45199 -1.16537
lowerneck -16.5558 -2.49821 -1.39051
upperneck 20.391 -4.73922 4.77798
head 9.31207 -1.9982 1.23043
rclavicle 4.44284e-014 1.19271e-015
rhumerus -13.8236 31.5275 -11.2184
rradius 37.1208
rwrist -13.1258
rhand -5.84563 9.30468
rfingers 7.12502
rthumb 19.9807 -19.6881
lclavicle 4.44284e-014 1.19271e-015
lhumerus -3.09389 -36.16 -1.50687
lradius 38.679
lwrist 20.2242
lhand -6.53832 -0.00270069
lfingers 7.12502
lthumb 19.3148 29.0581
rfemur -41.6694 -36.6155 21.9765
rtibia 79.0321
rfoot -34.5722 -3.78553
rtoes 8.94284
lfemur -38.9306 35.8378 -14.1587
ltibia 78.772
lfoot -33.7163 5.00556
ltoes 2.7334
167
root 2.62892 13.0846 10.8296 -175.406 0.159065 -176.77
lowerback 5.79677 1.88442 0.742292
upperback -6.32877 2.86373 -0.290942
thorax -9.92741 1.43527 -1.15336
lowerneck -16.573 -2.4654 -1.4059
upperneck 20.362 -4.69342 4.81556
head 9.30496 -1.97285 1.25188
rclavicle -3.15571e-014 1.82882e-014
rhumerus -13.8252 31.1455 -11.36
rradius 37.4613
rwrist -13.8783
rhand -6.83378 8.43751
rfingers 7.12502
rthumb 19.0307 -20.6515
lclavicle -3.15571e-014 1.82882e-014
lhumerus -3.17593 -35.9891 -1.31805
lradius 38.8254
lwrist 20.7339
lhand -7.26065 0.47356
lfingers 7.12502
lthumb 18.6201 29.6024
rfemur -41.642 -36.7028 21.9721
rtibia 78.9021
rfoot -34.4931 -3.81663
rtoes 8.83562
lfemur -38.9654 35.6013 -14.2241
ltibia 78.6959
lfoot -33.6689 4.97431
ltoes 2.77955
168
root 2.62233 13.094 10.8348 -175.387 0.0281406 -176.765
lowerback 5.77681 1.85139 0.755069
upperback -6.33164 2.82252 -0.278593
thorax -9.91953 1.41548 -1.14082
lowerneck -16.6045 -2.43703 -1.42366
upperneck 20.3544 -4.654 4.84778
head 9.30799 -1.95098 1.27086
rclavicle -3.96078e-014 1.19271e-015
rhumerus -13.8381 30.7684 -11.5246
rradius 37.8911
rwrist -14.7649
rhand -8.04172 7.48422
rfingers 7.12502
rthumb 17.8687 -21.7149
lclavicle -3.96078e-014 1.19271e-015
lhumerus -3.26133 -35.8364 -1.12517
lradius 39.0126
lwrist 21.2711
lhand -8.05918 1.05043
lfingers 7.12502
lthumb 17.8519 30.2511
rfemur -41.6094 -36.7964 21.9693
rtibia 78.7582
rfoot -34.4086 -3.85983
rtoes 8.71206
lfemur -39.0048 35.3371 -14.2923
ltibia 78.6142
lfoot -33.608 4.95329
ltoes 2.76247
169
root 2.61534 13.1044 10.8399 -175.367 -0.120405 -176.757
lowerback 5.75234 1.81873 0.770163
upperback -6.33338 2.78237 -0.262165
thorax -9.90779 1.39628 -1.12517
lowerneck -16.6521 -2.41762 -1.44663
upperneck 20.3653 -4.62409 4.86811
head 9.32057 -1.93473 1.28523
rclavicle -1.32689e-014 -1.15295e-014
rhumerus -13.873 30.3979 -11.705
rradius 38.4165
rwrist -15.7682
rhand -9.52996 6.49909
rfingers 7.12502
rthumb 16.4362 -22.8246
lclavicle -1.32689e-014 -1.15295e-014
lhumerus -3.3408 -35.7026 -0.921644
lradius 39.2486
lwrist 21.8332
lhand -8.91759 1.74253
lfingers 7.12502
lthumb 17.0258 31.0164
rfemur -41.5681 -36.894 21.9671
rtibia 78.599
rfoot -34.3172 -3.90954
rtoes 8.59722
lfemur -39.0449 35.0486 -14.3578
ltibia 78.5274
lfoot -33.5317 4.93128
ltoes 2.69329
170
root 2.60789 13.1159 10.8451 -175.347 -0.285492 -176.746
lowerback 5.72435 2.11669 0.821107
upperback -6.33316 2.6679 -0.270768
thorax -9.88627 1.11854 -1.10707
lowerneck -16.712 -2.405 -1.4697
upperneck 20.3913 -4.60151 4.87543
head 9.34056 -1.92294 1.29408
rclavicle -1.01877e-014 1.15295e-014
rhumerus -13.9286 30.0338 -11.9056
rradius 39.0421
rwrist -16.8599
rhand -11.3687 5.51264
rfingers 7.12502
rthumb 14.6653 -23.9487
lclavicle -1.01877e-014 1.15295e-014
lhumerus -3.41612 -35.5999 -0.713594
lradius 39.5492
lwrist 22.4458
lhand -9.82123 2.55569
lfingers 7.12502
lthumb 16.1558 31.9024
rfemur -41.5157 -36.9952 21.9656
rtibia 78.4223
rfoot -34.2168 -3.96996
rtoes 8.4716
lfemur -39.0837 34.7365 -14.4162
ltibia 78.4372
lfoot -33.4403 4.88078
ltoes 2.63893
171
root 2.59999 13.1286 10.8503 -175.33 -0.467036 -176.727
lowerback 5.69493 2.08609 0.842871
upperback -6.32996 2.63087 -0.243632
thorax -9.86622 1.10042 -1.08391
lowerneck -16.7811 -2.40027 -1.49186
upperneck 20.4289 -4.58652 4.86536
head 9.36603 -1.91615 1.29574
rclavicle 1.71452e-014 -7.95139e-016
rhumerus -13.9998 29.6667 -12.1189
rradius 39.7654
rwrist -17.9797
rhand -13.579 4.57537
rfingers 7.12502
rthumb 12.535 -25.0286
lclavicle 1.71452e-014 -7.95139e-016
lhumerus -3.49092 -35.5279 -0.495216
lradius 39.9293
lwrist 23.1305
lhand -10.7565 3.48734
lfingers 7.12502
lthumb 15.2551 32.9048
rfemur -41.4465 -37.0999 21.9671
rtibia 78.2276
rfoot -34.105 -4.03833
rtoes 8.35733
lfemur -39.116 34.4018 -14.4567
ltibia 78.3456
lfoot -33.3317 4.79941
ltoes 2.57117
172
root 2.59157 13.1424 10.8556 -175.319 -0.66458 -176.699
lowerback 5.66727 2.05735 0.871042
upperback -6.32496 2.59771 -0.211085
thorax -9.84511 1.08408 -1.05921
lowerneck -16.851 -2.40259 -1.51082
upperneck 20.4732 -4.5793 4.84131
head 9.3938 -1.9142 1.29102
rclavicle -4.15957e-014 -6.75868e-015
rhumerus -14.0866 29.2915 -12.3474
rradius 40.583
rwrist -19.0774
rhand -16.1424 3.7095
rfingers 7.12502
rthumb 10.0628 -26.0299
lclavicle -4.15957e-014 -6.75868e-015
lhumerus -3.56514 -35.4832 -0.264221
lradius 40.4001
lwrist 23.9002
lhand -11.7246 4.54462
lfingers 7.12502
lthumb 14.3224 34.0306
rfemur -41.359 -37.2085 21.9703
rtibia 78.0153
rfoot -33.9815 -4.11357
rtoes 8.24312
lfemur -39.1396 34.0426 -14.4758
ltibia 78.2551
lfoot -33.2038 4.67643
ltoes 2.4733
173
root 2.58263 13.1573 10.8611 -175.316 -0.877738 -176.664
lowerback 5.64285 2.02744 0.904426
upperback -6.3169 2.56431 -0.173147
thorax -9.82256 1.06763 -1.03177
lowerneck -16.9215 -2.40888 -1.52986
upperneck 20.5238 -4.57705 4.81229
head 9.42401 -1.91517 1.28392
rclavicle 1.03368e-014 -3.18055e-015
rhumerus -14.1716 28.9003 -12.591
rradius 41.4857
rwrist -20.1073
rhand -19.0077 2.91982
rfingers 7.12502
rthumb 7.29771 -26.9343
lclavicle 1.03368e-014 -3.18055e-015
lhumerus -3.64906 -35.466 -0.0251164
lradius 40.9756
lwrist 24.7684
lhand -12.7345 5.73002
lfingers 7.12502
lthumb 13.3491 35.2824
rfemur -41.2516 -37.3188 21.9735
rtibia 77.7866
rfoot -33.8443 -4.19075
rtoes 8.15507
lfemur -39.1532 33.6574 -14.4688
ltibia 78.168
lfoot -33.0546 4.49854
ltoes 2.362
